<?xml version="1.0" encoding="UTF-8"?>
<svg id="katman_2" data-name="katman 2" xmlns="http://www.w3.org/2000/svg" xmlns:xlink="http://www.w3.org/1999/xlink" viewBox="0 0 218.56 109.57">
  <defs>
    <style>
      .cls-1 {
        fill: none;
      }

      .cls-2 {
        clip-path: url(#clippath);
      }

      .cls-3 {
        fill: #02568e;
      }

      .cls-4 {
        fill: #00b6d4;
      }

      .cls-5 {
        fill: #67abd8;
      }

      .cls-6 {
        fill: #8ec045;
      }

      .cls-7 {
        fill: #1e262d;
      }

      .cls-8 {
        fill: #424142;
      }

      .cls-9 {
        fill: #404042;
      }

      .cls-10 {
        fill: #37474f;
      }

      .cls-11 {
        fill: #556f7b;
      }

      .cls-12 {
        fill: #2e3e45;
      }

      .cls-13 {
        fill: #3b3a3a;
      }

      .cls-14 {
        fill: #338dca;
      }

      .cls-15 {
        font-family: Helvetica-LightOblique, Helvetica;
        font-style: oblique;
      }

      .cls-16 {
        clip-path: url(#clippath-1);
      }

      .cls-17 {
        font-family: Helvetica-Bold, Helvetica;
        font-size: 22px;
        font-weight: 700;
      }

      .cls-17, .cls-18 {
        fill: #fff;
      }

      .cls-18 {
        font-size: 16px;
        font-weight: 300;
      }

      .cls-19 {
        fill: #f2f2f2;
        fill-rule: evenodd;
      }

      .cls-20 {
        font-family: Helvetica-Light, Helvetica;
      }
    </style>
    <clipPath id="clippath">
      <rect class="cls-1" width="218.56" height="109.57" rx="23.09" ry="23.09"/>
    </clipPath>
    <clipPath id="clippath-1">
      <rect class="cls-1" width="245.25" height="109.57" rx="22.52" ry="22.52"/>
    </clipPath>
  </defs>
  <g id="katman_1" data-name="katman 1">
    <g class="cls-2">
      <g class="cls-16">
        <rect class="cls-4" x="0" y="0" width="218.56" height="109.57" rx="23.09" ry="23.09"/>
      </g>
      <g>
        <g>
          <path class="cls-13" d="m127.54,65.14c-3.51-.31-6.93-2.19-9.8-3.77-1.3-.71-2.53-1.39-3.69-1.9-5.37-2.38-8.9-.41-9.04-.33l-1.71-2.88c.2-.12,5.08-2.97,12.11.15,1.29.57,2.58,1.28,3.94,2.03,6.3,3.46,10.74,5.35,14.87.29,2.94-3.6,3.33-7.18,3.71-10.64.42-3.81.85-7.74,4.7-10.96,7.22-6.04,18.74-2.26,19.23-2.1l-1.07,3.18.53-1.59-.53,1.59c-.1-.03-10.24-3.34-16.01,1.49-2.82,2.36-3.13,5.18-3.52,8.76-.41,3.76-.88,8.02-4.45,12.4-2.93,3.59-6.14,4.57-9.28,4.29Z"/>
          <path class="cls-8" d="m128.53,64.07c-.29,0-.59-.01-.89-.04-3.27-.29-6.5-2.06-9.35-3.63-1.34-.73-2.58-1.42-3.78-1.95-1.9-.84-3.79-1.27-5.62-1.27-1.49,0-2.65.28-3.41.55l-.58-.97c.87-.32,2.25-.69,4.02-.69,1.98,0,4.02.46,6.05,1.36,1.23.55,2.49,1.24,3.83,1.97,3.42,1.88,6.71,3.55,9.7,3.55,2.52,0,4.67-1.15,6.6-3.51,3.15-3.86,3.58-7.77,3.96-11.23.41-3.75.8-7.3,4.3-10.23,2.5-2.09,5.87-3.16,10.01-3.16,3,0,5.66.57,7.07.95l-.36,1.07c-1.37-.35-3.92-.89-6.74-.89-3.86,0-6.97.97-9.26,2.89-3.16,2.64-3.51,5.82-3.91,9.49-.42,3.79-.85,7.7-4.2,11.81-2.15,2.64-4.58,3.92-7.42,3.92Z"/>
        </g>
        <path class="cls-9" d="m157.98,26.29v38.19c-1.78,0-3.22-1.44-3.22-3.22v-31.75c0-1.78,1.44-3.22,3.22-3.22Z"/>
        <path class="cls-3" d="m197.62,11.44h-31.57c-5.22,0-9.47,4.88-9.47,10.88v81.11h50.51V22.32c0-6-4.25-10.88-9.47-10.88Z"/>
        <path class="cls-14" d="m197.62,14.81h-31.57c-3.67,0-6.67,3.62-6.67,8.07v80.54h44.9V22.89c0-4.45-2.99-8.07-6.66-8.07Z"/>
        <path class="cls-5" d="m164.51,28.11c0-3.95,2.66-7.17,5.92-7.17h28.04c.61,0,1.21.11,1.77.33-.73-2.96-2.99-5.12-5.67-5.12h-28.04c-3.26,0-5.92,3.22-5.92,7.17v80.12h3.9V28.11Z"/>
        <polygon class="cls-12" points="197.81 24.57 197.81 45.5 197.4 45.5 197.4 24.87 166.07 24.87 166.07 24.57 197.81 24.57"/>
        <rect class="cls-10" x="166.07" y="24.87" width="31.33" height="20.63"/>
        <path class="cls-9" d="m220.22,100.67h-76.77c-5.11,0-9.39,2.76-10.52,6.47h97.81c-1.13-3.71-5.41-6.47-10.52-6.47Z"/>
        <g>
          <rect class="cls-11" x="172.73" y="32.24" width="19.55" height="7.82"/>
          <rect class="cls-11" x="191.71" y="34.47" width="1.68" height="3.35"/>
        </g>
        <rect class="cls-6" x="173.46" y="33.08" width="1.46" height="6.14"/>
        <rect class="cls-6" x="175.29" y="33.08" width="1.46" height="6.14"/>
        <rect class="cls-6" x="177.13" y="33.08" width="1.46" height="6.14"/>
        <rect class="cls-6" x="178.96" y="33.08" width="1.46" height="6.14"/>
        <rect class="cls-6" x="180.79" y="33.08" width="1.46" height="6.14"/>
        <rect class="cls-6" x="182.63" y="33.08" width="1.46" height="6.14"/>
        <rect class="cls-6" x="184.46" y="33.08" width="1.46" height="6.14"/>
        <rect class="cls-7" x="186.29" y="33.08" width="1.46" height="6.14"/>
        <rect class="cls-7" x="188.13" y="33.08" width="1.46" height="6.14"/>
        <rect class="cls-7" x="189.96" y="33.08" width="1.46" height="6.14"/>
        <path class="cls-19" d="m182.41,52.76c5.33,0,9.65,4.19,9.65,9.35s-4.32,9.35-9.65,9.35-9.65-4.19-9.65-9.35,4.32-9.35,9.65-9.35h0Zm0,1.27c-4.61,0-8.34,3.62-8.34,8.08s3.73,8.08,8.34,8.08,8.34-3.62,8.34-8.08-3.73-8.08-8.34-8.08Z"/>
        <path class="cls-19" d="m183.91,53.71c-.52,0-4.81.04-4.81.04,0,0,2.28,6.53,2.02,6.45-.26-.07-3.48-.45-3.48-.45l6.51,10.48-1.83-8.68,3.7.22-2.11-8.06Z"/>
      </g>
      <text class="cls-17" transform="translate(19.48 32.85)"><tspan x="0" y="0">EV Şarj İstasyonu</tspan></text>
      <text class="cls-18" transform="translate(20.23 64.85)"><tspan class="cls-20"><tspan x="0" y="0">Aracını hemen</tspan></tspan><tspan class="cls-15"><tspan x="0" y="19.2">şarj et</tspan></tspan></text>
    </g>
  </g>
</svg>