<svg id="katman_2" data-name="katman 2" xmlns="http://www.w3.org/2000/svg" xmlns:xlink="http://www.w3.org/1999/xlink"
  viewBox="0 0 218.56 109.57">
  <defs>
    <style>
      .cls-1 {
        fill: none;
      }

      .cls-2 {
        font-size: 16px;
      }

      .cls-2,
      .cls-3,
      .cls-4 {
        fill: #fff;
      }

      .cls-5 {
        clip-path: url(#clippath);
      }

      .cls-6 {
        fill: #f8b882;
      }

      .cls-7 {
        fill: #00b6d4;
      }

      .cls-8 {
        fill: #efcd9d;
      }

      .cls-9 {
        fill: #eb5c52;
      }

      .cls-10 {
        fill: #ee765b;
      }

      .cls-11,
      .cls-12 {
        fill: #faea27;
      }

      .cls-13 {
        fill: #d1773b;
      }

      .cls-14 {
        fill: #d64438;
      }

      .cls-15 {
        fill: #d49f55;
      }

      .cls-16 {
        fill: #416390;
      }

      .cls-17 {
        fill: #294874;
      }

      .cls-18 {
        fill: #345581;
      }

      .cls-19 {
        fill: #3d464f;
      }

      .cls-20 {
        fill: #4b6671;
      }

      .cls-21 {
        fill: #48b59e;
      }

      .cls-22 {
        fill: #4e3527;
      }

      .cls-4 {
        font-size: 27.68px;
        font-weight: 800;
      }

      .cls-23 {
        clip-path: url(#clippath-1);
      }

      .cls-24 {
        clip-path: url(#clippath-2);
      }

      .cls-12 {
        isolation: isolate;
      }

      .cls-12,
      .cls-25 {
        opacity: .52;
      }
    </style>
    <clipPath id="clippath">
      <rect class="cls-1" width="245.25" height="109.57" rx="22.52" ry="22.52"></rect>
    </clipPath>
    <clipPath id="clippath-1">
      <path class="cls-1"
        d="m190.22,103.84l4.84-49.11c7.05,9.82,19.65,27.41,25.61,35.91l-1.39,14.39c-.09.92-1,1.64-2.07,1.64l-24.93-.88c-.59,0-1.13-.2-1.53-.58-.4-.37-.59-.85-.54-1.36Z">
      </path>
    </clipPath>
    <clipPath id="clippath-2">
      <path class="cls-1"
        d="m190.22,103.84l4.84-49.11c7.05,9.82,19.65,27.41,25.61,35.91l-1.39,14.39c-.09.92-1,1.64-2.07,1.64l-24.93-.88c-.59,0-1.13-.2-1.53-.58-.4-.37-.59-.85-.54-1.36Z">
      </path>
    </clipPath>
  </defs>
  <g id="katman_1" data-name="katman 1">
    <g>
      <g class="cls-5">
        <rect class="cls-7" x="0" y="0" width="218.56" height="109.57" rx="23.09" ry="23.09"></rect>
      </g> <text class="cls-4" transform="translate(19.48 37.53)">
        <tspan x="0" y="0">Kargo</tspan>
      </text> <text class="cls-2" transform="translate(20.23 65.17)">
        <tspan x="0" y="0">Anında hızlı bir </tspan>
        <tspan x="0" y="19.2">şekilde kargola</tspan>
      </text>
      <g>
        <g>
          <g>
            <path class="cls-22"
              d="m179.33,18.61c-.32-1.46-1.04-4-.45-5.41.79-1.9,3.2-2.76,5.07-2.82,1.51-.05,3.32-.14,4.77.35,1.33.44.59,2.65,1.84,3.39,1.25.74.82,3.24.73,4.02-.08.77-1.47,5.55-1.47,5.55l-10.5-5.08Z">
            </path>
            <path class="cls-12"
              d="m188.74,23.16l1.08.52s1.39-4.78,1.47-5.55c.08-.77.51-3.28-.73-4.02-1.25-.74-.51-2.95-1.84-3.39-1.15-.38-2.52-.41-3.78-.38.89.03,1.77.12,2.55.38,1.33.44.59,2.65,1.84,3.39,1.25.74.82,3.24.73,4.02-.06.62-.96,3.77-1.32,5.03Z">
            </path>
            <g id="POLYLINE">
              <path class="cls-6"
                d="m179.51,16.03c.14-.47.37-.91.55-1.37.16-.4.29-.95.67-1.2.61-.39,1.64-.02,2.24.21.32.12.76.27.78.68.02.54,0,.94.37,1.4.5.61,1.43.97,1.72,1.73.12.33.03.66.02,1-.02.43.31.74.7.9.34.14.49-.2.61-.47.35-.76.77-2.18,1.84-1.68.59.28,1.18.96,1.21,1.63.01.32-.08.63-.27.88-.07.08-.68.45-.67.44-.28,1.85.88,4.24,1.41,5.99.14.46.28.95.17,1.42-.4,1.76-3.29,2.44-4.78,2.56-.34.03-.72.04-1.04-.08-.16-.06-.38-.17-.42-.35-.04-.19.13-.33.22-.48.19-.31.19-.71.1-1.11-.11-.5-.35-1.01-.46-1.38-.54-1.7-2.44-.97-3.58-1.8-.35-.25-.63-.66-.78-1.33-.44-2.01-1.15-5.55-.58-7.58Z">
              </path>
            </g>
            <g id="POLYLINE-2" data-name="POLYLINE">
              <path class="cls-12"
                d="m187.72,29.86c1.37-.35,2.84-1.06,3.12-2.28.11-.47-.03-.96-.17-1.42-.53-1.75-1.69-4.14-1.41-5.99,0,.01.61-.36.67-.44.2-.25.29-.56.27-.88-.02-.54-1.26-2.64-1.96-1.86-.27.3-.25.76-.21,1.17.03.33.16,1.56.27,3.11.26,3.4.45,8.33-.6,8.6Z">
              </path>
              <path class="cls-6"
                d="m180.1,23.61c.15.67.43,1.08.78,1.33,1.15.84,3.05.1,3.58,1.8.12.37.35.88.46,1.38.09.4.1.8-.1,1.11-.09.14-.26.29-.22.48.04.18.26.29.42.35.33.12.7.11,1.04.08.46-.03,1.04-.12,1.65-.28.78-2.77.56-5.86-.48-8.52-.29-.88-2.36.29-2.95-.59-1.88-1.88-1.51-4.5-1.44-7.13-.61-.23-1.55-.53-2.13-.16-.39.25-.52.8-.67,1.2-.18.46-.41.9-.55,1.37-.56,2.02.14,5.57.59,7.58Z">
              </path>
            </g>
            <path class="cls-10"
              d="m183.68,24.72c.83-.14,1.94-.65,1.91.63,0,.44-.06.88-.14,1.32-.1.46-.13,1.13-.51,1.45-.16-.43-.34-.92-.48-1.37-.21-.66-.7-1.01-1.35-1.18-.65-.17-1.34-.15-1.9-.54.03,0,.05,0,.08,0,.8-.02,1.61-.18,2.4-.31Z">
            </path>
            <path class="cls-21"
              d="m179.3,20.67s-.36,2.84,1.91,4.36c2.26,1.52,4.01-.53,4.01-.53,0,0,.04-.1.1-.28.03-.09.55-.23.65-.28.24-.12.47-.26.69-.42.31-.21.56-.47.81-.75.36-.39.74-.76,1.08-1.16.22-.25.48-.52.64-.81.14-.25.16-.56.33-.79-.84,1.19-1.84,2.26-2.97,3.17-.32.25-.71.65-1.09.79-.11-.23.08-.54.12-.77.06-.31.1-.62.11-.94.03-.67-.05-1.36-.34-1.98,0,0-.05,0-.15-.02.5-.38.98-.76,1.47-1.16.4-.32.71-.46.92-.96-.46.29-.97.56-1.4.89-.42.32-.81.71-1.2,1.06-.04.04-.04.08-.03.13-.96-.15-3.43-.49-4.55-.33-1.42.2-1.1.78-1.1.78Z">
            </path>
            <path class="cls-12"
              d="m183.18,25.57c1.23-.12,2.04-1.07,2.04-1.07,0,0,.04-.1.1-.28.03-.09.55-.23.65-.28.24-.12.47-.26.69-.41.31-.21.56-.47.81-.75.36-.39.74-.76,1.08-1.16.22-.25.48-.52.64-.81.14-.25.16-.56.33-.79-.84,1.19-1.84,2.26-2.97,3.17-.32.26-.71.65-1.09.79-.11-.23.08-.54.12-.77.06-.31.1-.62.11-.94.03-.67-.05-1.36-.34-1.98,0,0-.05,0-.15-.02.5-.38.98-.76,1.47-1.16.4-.32.71-.46.92-.96-.46.29-.97.56-1.4.89-.42.32-.81.71-1.2,1.06-.04.04-.04.08-.03.13-.15-.02-.34-.05-.56-.08.22,1.99-.24,3.89-1.23,5.43Z">
            </path>
          </g>
          <g id="POLYLINE-3" data-name="POLYLINE">
            <path class="cls-9"
              d="m183.43,28.83c-.03-.57.51-.77.96-.92.79-.26,1.52-.55,2.24-.98.85-.51,1.66-1.08,2.56-1.5.39-.18,1.09-.54,1.51-.23.22.16.29.45.36.7.09.33.22.71.22,1.05,0,.31-.2.41-.48.48-.39.09-.78.14-1.15.27-.87.29-1.68.75-2.46,1.22-.42.25-.83.52-1.24.8-.23.15-.46.33-.73.41-.6.19-1.3-.25-1.62-.75-.1-.16-.17-.35-.18-.54Z">
            </path>
          </g>
          <g>
            <g class="cls-23">
              <g id="POLYLINE-4" data-name="POLYLINE">
                <path class="cls-19"
                  d="m197.42,105.86c-.4.66-.12,1.55.21,2.13.53.94,1.99.19,2.74-.04,3.49-1.07,7.29-3.47,9.93-5.97,1.27-1.19-.13-3.22-1.27-3.98-1.43-.95-3.59-.58-4.98.23-1.22.71-2.39,1.92-2.97,3.22-.48,1.06-.37,2.56-1.46,3.28-.7.46-1.72.37-2.19,1.14Z">
                </path>
              </g>
            </g>
            <g class="cls-24">
              <path class="cls-12"
                d="m200.92,107.76c3.33-1.15,6.87-3.42,9.37-5.79,1.27-1.19-.13-3.22-1.27-3.98-1.43-.95-3.59-.58-4.98.23-.05.03-.1.06-.15.09,1.12-.24,2.33-.18,3.24.43,1.14.76,2.55,2.79,1.27,3.98-2.03,1.92-4.75,3.78-7.48,5.03Z">
              </path>
            </g>
          </g>
          <g id="POLYLINE-5" data-name="POLYLINE">
            <path class="cls-18"
              d="m182.81,70.48c.06-.67.18-1.33.37-1.98.49-1.76,1.39-3.41,2.64-4.74l-.34-.65c.5-.12.99-.24,1.48-.36.26-.17.53-.32.82-.42.42-.14.88-.18,1.3-.09.47-.11.95-.23,1.42-.34,1.31,1.6,1.22,3.89,1.05,5.94-.2,2.48-.85,5.19-.03,7.56.22.64.37,1.32.68,1.93.69,1.38,2.12,2.3,3.26,3.28,1.26,1.08,2.32,2.3,3.26,3.65.98,1.41,1.87,2.88,2.85,4.3.96,1.39,2.02,2.67,3.21,3.85.59.57,1.2,1.13,1.82,1.67.59.52,1.24,1.02,1.72,1.65.4.52.63,1.15.59,1.8-.02.41-.15.77-.47,1.04s-.63.47-.86.83c-.57.85-1.1,1.63-2.05,2.1-.82.4-1.57.21-2.43.02-.5-.11-1.1-.15-1.55-.42-.5-.31-.18-.87-.11-1.32.07-.49-.09-.97-.41-1.35-.33-.41-.87-.6-1.15-1.06-.22-.37-.31-.81-.55-1.17-.29-.45-.73-.8-1.14-1.15-.64-.54-1.28-1.08-1.85-1.69-1.23-1.33-2.26-2.84-3.33-4.29-.92-1.24-1.88-2.44-3-3.49-.58-.55-1.19-1.06-1.82-1.54-.27-.2-.55-.4-.82-.6-.39-.29-.77-.59-1.09-.94-1.33-1.45-1.32-3.28-1.74-5.05-.58-2.42-1.96-4.39-1.73-6.92Z">
            </path>
          </g>
          <path class="cls-12"
            d="m205.61,101.44c.89-.47,1.4-1.22,1.96-2.05.23-.35.54-.56.86-.83s.45-.63.47-1.04c.03-.65-.2-1.29-.59-1.8-.48-.63-1.13-1.13-1.72-1.65-.62-.54-1.23-1.09-1.82-1.67-1.2-1.18-2.26-2.46-3.21-3.85-.98-1.41-1.86-2.89-2.85-4.3-.95-1.35-2-2.57-3.26-3.65-1.14-.98-2.57-1.9-3.26-3.28-.31-.6-.46-1.29-.68-1.93-.81-2.37-.16-5.08.03-7.56.17-2.06.26-4.35-1.05-5.94-.47.11-.95.23-1.42.34-.42-.09-.88-.05-1.3.09-.29.1-.57.24-.82.42-.5.12-.99.24-1.48.36l.34.65c-.23.24-.44.5-.64.76,0,0,0,0,.01,0,.26-.17.53-.32.82-.42.42-.14.88-.18,1.3-.09.47-.11.95-.23,1.42-.34,1.31,1.59,1.22,3.89,1.05,5.94-.2,2.48-.85,5.19-.03,7.56.22.64.37,1.32.68,1.93.69,1.38,2.12,2.3,3.26,3.28,1.26,1.08,2.32,2.3,3.26,3.65.98,1.41,1.87,2.88,2.85,4.3.95,1.39,2.02,2.67,3.21,3.85.59.57,1.2,1.13,1.82,1.67.59.52,1.24,1.02,1.72,1.65.4.52.63,1.15.59,1.8-.02.41-.15.77-.47,1.04s-.63.47-.86.83c-.06.09-.12.18-.19.28Z">
          </path>
          <path class="cls-17"
            d="m182.81,70.48c.06-.67.18-1.33.37-1.98.94-1.2,2.17-2.39,3.49-3.12.32-.18.65-.34.99-.45,2.37-.85,2.09,1.35,1.87,3.18-.09.73-.18,1.47-.27,2.2-.3,2.28-2.61,3.49-2.63,6.13-.02,2.6,1.15,4.29.76,6.95-.39-.29-.77-.59-1.09-.94-1.33-1.45-1.32-3.28-1.74-5.05-.58-2.42-1.96-4.39-1.73-6.92Z">
          </path>
          <g id="POLYLINE-6" data-name="POLYLINE">
            <path class="cls-16"
              d="m178.82,61.04c-.17.42-.38.73-.72,1.05-.39.37-.61.81-.81,1.3-.37.89-.67,1.8-1.02,2.7-.73,1.86-1.51,3.71-2.14,5.61-.34,1.03-.65,2.08-1.05,3.09-.35.89-.88,1.69-1.18,2.6-.29.88-.42,1.81-.52,2.72-.09.82-.24,1.69-.15,2.51.08.72.48,1.35.74,2.02.25.64.34,1.28.35,1.97.02.93-.01,1.85.15,2.76.16.97.42,1.92.56,2.89.25,1.86-.05,3.76.22,5.61.12.82.4,1.59.43,2.42.02.59-.03,1.27.27,1.81.37.65,1.14,1.12,1.76,1.51.67.43,1.38.8,2.13,1.07.84.31,1.73.51,2.61.64.41.06,1.12.2,1.39-.23.25-.4.1-1.07.04-1.49-.09-.67-.14-1.4-.44-2.02-.23-.47-.6-.85-.77-1.35-.21-.6.09-.99.22-1.56.16-.72.12-1.51.08-2.24-.04-.98-.13-1.96-.23-2.94-.23-2.3-.47-4.59-.71-6.89-.08-.77-.16-1.54-.3-2.3-.08-.42-.18-.83-.33-1.23-.13-.37-.32-.72-.44-1.1-.14-.41-.14-.86-.03-1.28.16-.61.63-.97.94-1.49.25-.44.3-.95.61-1.37.53-.73,1.19-1.35,1.72-2.09,1.16-1.66,2.08-3.47,3.08-5.22.44-.77.91-1.52,1.54-2.16.65-.67,1.38-1.24,2.04-1.9.48-.48.94-1,1.26-1.6.39-.74.56-1.56.64-2.39">
            </path>
          </g>
          <path class="cls-12"
            d="m178.71,104.97c.57.16,1.15.28,1.74.37.41.06,1.12.2,1.39-.23.25-.4.1-1.07.04-1.49-.09-.67-.14-1.4-.44-2.02-.23-.47-.6-.85-.77-1.35-.21-.6.09-.99.22-1.56.16-.72.12-1.51.08-2.24-.04-.98-.13-1.96-.23-2.94-.23-2.3-.47-4.59-.71-6.89-.08-.77-.16-1.54-.3-2.3-.08-.42-.18-.83-.33-1.23-.13-.37-.32-.72-.44-1.1-.14-.41-.14-.86-.03-1.28.16-.61.63-.97.94-1.49.25-.44.3-.95.61-1.37.53-.73,1.19-1.35,1.72-2.09,1.16-1.66,2.08-3.47,3.08-5.22.44-.77.91-1.52,1.54-2.16.65-.67,1.38-1.24,2.04-1.9.48-.48.94-1,1.26-1.6.39-.74.56-1.56.64-2.39l-11.91-1.46c-.06.13-.12.25-.18.37l8.91,1.09c-.08.83-.25,1.65-.64,2.39-.32.6-.78,1.12-1.26,1.6-.66.65-1.39,1.23-2.04,1.9-.62.64-1.1,1.39-1.54,2.16-.99,1.76-1.91,3.56-3.08,5.22-.52.74-1.19,1.36-1.72,2.09-.3.42-.35.93-.61,1.37-.31.52-.78.88-.94,1.49-.11.42-.1.87.03,1.28.12.37.31.72.44,1.1.14.4.25.82.33,1.23.14.76.23,1.53.3,2.3.24,2.29.48,4.59.71,6.89.1.98.19,1.96.23,2.94.03.74.08,1.52-.08,2.24-.13.57-.43.96-.22,1.56.18.5.54.88.77,1.35.3.62.35,1.35.44,2.02.05.38.18.94.02,1.35Z">
          </path>
          <g id="POLYLINE-7" data-name="POLYLINE">
            <path class="cls-9"
              d="m183.62,29.37c-.88,1.09-1.53,2.23-1.95,3.58-.8,2.59-1.12,5.33-1.52,8-.39,2.63-.72,5.27-1.05,7.91l-.47,5.04c-.1,1.06-.06,2.26-.33,3.28-.21.8-.8,1.06-1.06,1.82-.18.52.13,1.24.68,1.25-.37,0-.49,1.1-.44,1.33.13.55.43.69.92.94,1.3.69,2.9.77,4.29,1.26,2.94,1.05,4.57.6,7.62.22.57-.07,1.15-.14,1.64-.42.93-.52,1.06-1.96,1.12-2.93.09-1.37-.51-2.66-.5-4.04.01-2-.41-3.8-.21-5.8.2-1.95.46-3.88.83-5.8.39-2.04.84-4.07,1.24-6.11.37-1.9.62-3.81.29-5.73-.33-1.94-1.18-3.67-2.48-5.14-.3-.35-.62-.68-.95-1.01l-7.67,2.35Z">
            </path>
          </g>
          <path class="cls-12"
            d="m184.96,64.36c1.72.22,3.17-.08,5.34-.34.57-.07,1.15-.14,1.64-.42.93-.52,1.06-1.96,1.12-2.93.09-1.38-.51-2.66-.5-4.04.01-2-.41-3.8-.21-5.8.2-1.95.46-3.88.83-5.8.39-2.04.84-4.07,1.24-6.11.37-1.9.62-3.81.29-5.73-.33-1.94-1.18-3.67-2.48-5.14-.3-.35-.62-.68-.95-1.01l-2.03.62c.12.13.24.26.35.39,1.29,1.48,2.14,3.21,2.48,5.14.33,1.92.09,3.84-.29,5.73-.4,2.04-.85,4.07-1.24,6.11-.37,1.92-.63,3.86-.83,5.8-.2,2,.22,3.8.21,5.8,0,1.39.59,2.67.5,4.04-.06.97-.19,2.41-1.12,2.93-.5.28-1.08.35-1.64.42-1.03.13-1.9.26-2.72.34Z">
          </path>
          <path class="cls-14"
            d="m192.92,40.99c-.23-2.21-1.41.4-1.89,1.12-.94,1.41-2.04,2.72-3.25,3.91-2.41,2.36-5.31,4.22-8.47,5.41-.08,1.66-.15,3.32-.23,4.99,2.56-.99,5.12-1.97,7.68-2.96,1.11-.43,2.26-.88,3.09-1.73,1.12-1.14,1.51-2.79,1.84-4.36.41-1.93,1.43-4.41,1.22-6.38Z">
          </path>
          <path class="cls-14"
            d="m186.19,33.79c1.17-1.68,1.6,1.18,1.7,2.06.17,1.49.11,3.01-.15,4.48-.26,1.48-.74,2.92-1.41,4.26-.33.66-.7,1.3-1.13,1.9-.3.44-1.23,1.18-1.35,1.66.72-2.87-.12-5.92.3-8.85.26-1.82.98-4,2.04-5.52Z">
          </path>
          <g id="POLYLINE-8" data-name="POLYLINE">
            <path class="cls-19"
              d="m173.94,102.13c-.29.14-.58.28-.87.43-.99.52-1.68,1.38-2.59,2.02-.77.53-1.65.74-2.57.84-.54.06-1.12.06-1.66.2-.4.1-.6.35-.73.73-.19.56-.37,1.46-.01,2,.42.64,1.56.58,2.2.61,1.41.08,2.82.06,4.23.07,2.59.02,5.18.07,7.76-.04.72-.03,1.58-.02,1.82-.85.25-.85.21-1.92-.01-2.78">
            </path>
          </g>
          <g>
            <g id="POLYLINE-9" data-name="POLYLINE">
              <path class="cls-15"
                d="m158.09,37.93c.1-.03.27.02.37.02.53.03,1.06.06,1.59.1,1.85.11,3.69.22,5.54.33,2.27.14,4.55.27,6.82.41,1.92.12,3.84.23,5.76.34.6.03,1.19.07,1.79.1.05,0,.63.08.65.04-.05.76-.09,1.52-.14,2.28-.2,3.31-.39,6.61-.59,9.92-.12,2.07-.25,4.15-.37,6.22-.3-.02-.61-.04-.91-.05h-.19c-2.06-.13-4.11-.26-6.17-.38l-5.2-.31c-.41-.03-.82-.05-1.24-.07-2.96-.17-5.93-.35-8.89-.53.03-.46.05-.92.08-1.37.12-2,.24-3.99.36-5.99.07-1.24.15-2.49.22-3.73l.38-6.37c.01-.2.02-.4.04-.6,0-.11-.01-.2,0-.26,0-.05.03-.08.09-.1Z">
              </path>
            </g>
            <g>
              <rect class="cls-15" x="159.48" y="36.3" width="18.15" height="22.81"
                transform="translate(112.53 213.68) rotate(-87.15)"></rect>
              <rect class="cls-8" x="163.11" y="42.62" width="11.22" height="3.23"
                transform="translate(116.15 210.56) rotate(-87.15)"></rect>
            </g>
            <path class="cls-13"
              d="m158.12,38.06l1.33,16.44,20.05,3.2-1.43.04c-2.06-.12-4.11-.25-6.17-.37l-5.2-.31c-.41-.03-.82-.05-1.24-.07-2.96-.17-5.93-.35-8.89-.53.03-.46.05-.92.08-1.37.12-2,.24-3.99.36-5.99.07-1.24.15-2.49.22-3.73l.38-6.37c.01-.2.02-.4.04-.6,0-.11-.01-.2,0-.26l.46-.07Z">
            </path>
            <rect class="cls-20" x="158.23" y="51.28" width="3.47" height="3.47"
              transform="translate(99.06 210.15) rotate(-87.15)"></rect>
            <rect class="cls-20" x="164.32" y="50.75" width=".54" height="3.47"
              transform="translate(103.98 214.26) rotate(-87.15)"></rect>
            <rect class="cls-20" x="164.25" y="52.01" width=".54" height="3.47"
              transform="translate(102.67 215.39) rotate(-87.15)"></rect>
          </g>
          <g id="POLYLINE-10" data-name="POLYLINE">
            <path class="cls-6"
              d="m168.06,52.66c-1.44.4-3.13,1.91-4.25,2.86.7.31,2.07.63,2.4-.37-.24.66-.79.88-1.45,1.11-.3.1-.91.79-1.14.75-.03.24.14.46.34.58.21.12.45.15.68.19.45.06.91.13,1.36.19.43.06.86.12,1.29.12,2.21-.02,3.73-2.12,5.72-2.84,2.54-.92,5.25-1.26,7.78-2.2,2.39-.89,4.72-2,7.07-2.98,3-1.25,3.28-6.27,4.07-8.93-1.9-.35-3.8-.7-5.7-1.05.43.08-2.1,5.82-2.89,6.34-3.15,2.07-6.75,3.63-10.13,5.27-.99.48-2,1.11-3.14,1.08-.5-.01-.98-.16-1.47-.17-.18,0-.37.01-.55.06Z">
            </path>
          </g>
          <g class="cls-25">
            <path class="cls-11" d="m164.12,55.64s.03.01.05.02c.09-.09.17-.19.23-.31-.07.13-.17.22-.28.3Z"></path>
            <path class="cls-11"
              d="m169.24,52.67c-.21-.03-.42-.07-.64-.07-.18,0-.37.01-.55.06-.06.02-.13.04-.19.06.17.03.33.05.5.05.3,0,.59-.03.88-.1Z">
            </path>
            <path class="cls-11"
              d="m166.28,58c.34.05.68.08,1.02.08,2.21-.02,3.73-2.12,5.72-2.84,2.54-.92,5.25-1.26,7.78-2.2,2.39-.89,4.72-2,7.07-2.98,3-1.25,3.28-6.27,4.07-8.93-1.9-.35-3.8-.7-5.7-1.05.06.01.06.13.02.32,1.32.24,2.65.49,3.97.73-.79,2.66-1.07,7.68-4.07,8.93-2.36.98-4.68,2.09-7.07,2.98-2.53.94-5.24,1.28-7.78,2.2-1.77.64-3.18,2.37-5.03,2.76Z">
            </path>
          </g>
          <g id="POLYLINE-11" data-name="POLYLINE">
            <path class="cls-9"
              d="m191.78,29.33c2.6.73,2.54,3.4,2.33,5.54-.09.87-.19,1.72-.42,2.56-.26.93-.56,1.85-.81,2.78-.2.75-.27,1.51-.44,2.26-.06.24-.14.46-.43.4-.32-.06-.63-.29-.92-.42-1.42-.67-2.99-.7-4.52-.44-.4.07-1.1.25-1.19-.32-.03-.22,0-.46.02-.68.04-.47.09-.93.1-1.4.01-1.72-.34-3.46,0-5.17.05-.24.1-.48.15-.72.45-2.11,3.95-5,6.14-4.39Z">
            </path>
          </g>
          <g class="cls-25">
            <path class="cls-11"
              d="m191.18,42.5c.26.14.54.32.83.38.28.06.37-.15.43-.4.17-.75.24-1.51.44-2.26.25-.93.55-1.85.81-2.78.23-.85.34-1.69.42-2.56.21-2.14.26-4.81-2.33-5.54-.4-.11-.84-.11-1.3-.01.02,0,.03,0,.05.01,2.6.73,2.54,3.4,2.33,5.54-.09.87-.19,1.72-.42,2.56-.26.93-.56,1.85-.81,2.78-.2.75-.27,1.51-.44,2.26,0,0,0,.01,0,.02Z">
            </path>
          </g>
        </g>
        <path class="cls-9"
          d="m191.45,17.22c.83-1.9-.34-4.84-1.75-6.22-1.35-1.32-3.35-1.81-5.15-1.81-1.77,0-3.33.93-4.49,2.21-.54.59-1.26,1.42-1.51,2.19-.12.37-.28,1.82.26,1.96.16.04.33-.03.49-.09,1.08-.42,2.07-.36,3.17-.19.82.13,1.61.23,2.38.55.49.2.96.59,1.47.68.58.1,1.15-.13,1.73-.23.26-.05,2.25.35,3.06.69.23.1.37.19.34.27Z">
        </path>
        <g>
          <path class="cls-14"
            d="m185.72,16.27c.2.1.4.19.6.23.27.05.54.02.8-.03-.65-.14-1.23-.23-1.36-.21-.02,0-.03,0-.05,0Z"></path>
          <path class="cls-12"
            d="m189.38,16.46c.63.14,1.33.32,1.73.49.23.1.37.19.33.27.83-1.9-.34-4.84-1.75-6.22-1.35-1.32-3.35-1.81-5.15-1.81-.33,0-.65.03-.96.09,1.4.2,2.8.72,3.82,1.72,1.24,1.21,2.29,3.61,1.97,5.47Z">
          </path>
          <path class="cls-14"
            d="m178.5,15.14c.06.2.15.36.31.4.16.04.33-.03.49-.09.24-.1.48-.16.72-.21-.52-.08-1.02-.12-1.52-.1Z"></path>
        </g>
        <path class="cls-3"
          d="m184.74,15.74c-.33-.03-5.36-.72-5.38-.46.08-1.11.18-2.26.72-3.23.54-.97,1.65-1.73,2.73-1.49,2.03.45,2.58,3.56,1.93,5.18Z">
        </path>
        <path class="cls-9"
          d="m183.16,16.13c-1.6-.09-3.21-.08-4.81-.03-.56.02-2.97.21-2.09-1.06.24-.34.67-.49,1.07-.6,1.85-.47,3.75-.7,5.65-.46.77.1,4.12.61,4.04,1.82-.02.36-.37.64-.73.7-.11.02-.23.03-.35.03-.89.02-1.93-.35-2.78-.39Z">
        </path>
        <path class="cls-14"
          d="m176.2,15.13c-.69,1.17,1.6.99,2.15.97,1.61-.05,3.21-.06,4.81.03,1.42.06,2.74.31,4.18.31-1.36-.4-2.75-.91-4.18-.99-1.6-.09-3.21-.08-4.81-.03-.4.01-1.73.11-2.15-.29Z">
        </path>
        <path class="cls-14"
          d="m182.5,61.72c-1.58-.31-3.19-.88-4.72-1.37.76.83,1.26,1.42,2.31,1.81,3.11,1.11,6.58,1.2,9.75.25-1.99.6-5.35-.3-7.34-.69Z">
        </path>
        <path class="cls-10"
          d="m164.65,57.69c.67-.2,1.35-.41,1.99-.68.18-.07.04-.33-.12-.29-.66.15-1.33.36-1.97.58-.25.08-.15.47.11.39Z">
        </path>
        <path class="cls-10"
          d="m166.15,58.19c.63-.12,1.26-.37,1.85-.6.14-.05.09-.25-.06-.22-.63.14-1.31.28-1.91.54-.17.07-.04.31.12.28Z">
        </path>
      </g>
    </g>
  </g>
</svg>