<?xml version="1.0" encoding="UTF-8"?>
<svg id="katman_2" data-name="katman 2" xmlns="http://www.w3.org/2000/svg" xmlns:xlink="http://www.w3.org/1999/xlink" viewBox="0 0 137.97 149.8">
  <defs>
    <style>
      .cls-1 {
        fill: #1fa65e;
      }

      .cls-2 {
        fill: #4e8dcb;
      }

      .cls-3 {
        opacity: .9;
      }

      .cls-4 {
        fill: url(#Adsız_degrade_9);
      }

      .cls-4, .cls-5 {
        opacity: .8;
      }

      .cls-5 {
        fill: url(#Adsız_degrade_8);
      }
    </style>
    <linearGradient id="Adsız_degrade_8" data-name="Adsız degrade 8" x1="240.62" y1="158.27" x2="240.62" y2="-9.23" gradientTransform="translate(-174.02 -130.51) rotate(20.23) scale(1.26 1.41)" gradientUnits="userSpaceOnUse">
      <stop offset="0" stop-color="#c62786"/>
      <stop offset=".47" stop-color="#4dc2f0"/>
      <stop offset=".9" stop-color="#4e8dcb" stop-opacity=".8"/>
    </linearGradient>
    <linearGradient id="Adsız_degrade_9" data-name="Adsız degrade 9" x1="247.16" y1="172.73" x2="247.16" y2="4.46" gradientTransform="translate(-174.02 -130.51) rotate(20.23) scale(1.26 1.41)" gradientUnits="userSpaceOnUse">
      <stop offset="0" stop-color="#c62786"/>
      <stop offset=".47" stop-color="#3c85c6"/>
      <stop offset=".64" stop-color="#3d85c6" stop-opacity=".98"/>
      <stop offset=".77" stop-color="#4287c7" stop-opacity=".93"/>
      <stop offset=".88" stop-color="#4b8bca" stop-opacity=".84"/>
      <stop offset=".91" stop-color="#4e8dcb" stop-opacity=".81"/>
    </linearGradient>
  </defs>
  <g id="katman_2-2" data-name="katman 2">
    <path class="cls-2" d="m45.26,16.34C47.19,7.05,55.36.4,64.85.4h36.98c8.18,0,14.67,1.1,19.46,3.29,4.78,2.19,8.41,4.79,10.89,7.78,2.48,3,4.06,6.17,4.76,9.51.69,3.34,1.04,6.11,1.04,8.3,0,3.69-.55,7.18-1.64,10.46-1.1,3.29-2.68,6.25-4.76,8.91-2.08,2.66-4.58,4.84-7.52,6.57-2.94,1.73-6.2,2.88-9.77,3.46v.35c12.33,3.92,18.5,12.56,18.5,25.94,0,3.23-.64,7.06-1.9,11.5-1.27,4.44-3.6,8.71-7,12.8-3.4,4.09-8.13,7.55-14.18,10.38-6.05,2.83-13.81,4.24-23.26,4.24H22.97S45.26,16.34,45.26,16.34Z"/>
    <g class="cls-3">
      <path class="cls-1" d="m22.29,42.27c1.92-9.28,10.1-15.94,19.58-15.94h36.98c8.18,0,14.67,1.1,19.46,3.29,4.78,2.19,8.41,4.79,10.89,7.78,2.48,3,4.06,6.17,4.76,9.51.69,3.34,1.04,6.11,1.04,8.3,0,3.69-.55,7.18-1.64,10.46-1.1,3.29-2.68,6.25-4.76,8.91-2.08,2.66-4.58,4.84-7.52,6.57-2.94,1.73-6.2,2.88-9.77,3.46v.35c12.33,3.92,18.5,12.56,18.5,25.94,0,3.23-.64,7.06-1.9,11.5-1.27,4.44-3.6,8.71-7,12.8-3.4,4.09-8.13,7.55-14.18,10.38-6.05,2.83-13.81,4.24-23.26,4.24H0L22.29,42.27Z"/>
    </g>
    <path class="cls-5" d="m137.77,32.19c-5.21-46.59-73.59-28.67-91.06,35.28l18.02-1.93s-14.15,35.11-15.98,74.65c-9.86-22.65-4.35-58.1-4.35-58.1l-22.41,4.52C52.17-2.48,95.82-3.63,115.9,1.85c15.73,4.3,22.35,14.25,21.87,30.34Z"/>
    <path class="cls-4" d="m137.77,33.05c-5.33-28.39-33.5-23.41-54.59-.98-5.56,5.89-10.49,13.24-14.2,21.95l33.18-2.84c-.49.47-9.25,8.62-20.77,25.4-2.46,3.57-5.05,7.54-7.69,11.91-8.14,13.39-16.97,30.54-24.94,51.7-.17-37.39,15.98-74.65,15.98-74.65l-18.02,1.93C64.12,1.92,134.74-13.36,137.77,33.05Z"/>
  </g>
</svg>