<?xml version="1.0" encoding="UTF-8"?>
<svg id="katman_2" data-name="katman 2" xmlns="http://www.w3.org/2000/svg" xmlns:xlink="http://www.w3.org/1999/xlink" viewBox="0 0 446.09 381.07">
  <defs>
    <style>
      .cls-1 {
        fill: #1fa65e;
      }

      .cls-2 {
        fill: #4e8dcb;
      }

      .cls-3 {
        opacity: .9;
      }

      .cls-4 {
        fill: url(#Adsız_degrade_9);
      }

      .cls-4, .cls-5 {
        opacity: .8;
      }

      .cls-5 {
        fill: url(#Adsız_degrade_8);
      }
    </style>
    <linearGradient id="Adsız_degrade_8" data-name="Adsız degrade 8" x1="-36.59" y1="219.4" x2="-36.59" y2="-173.46" gradientTransform="translate(229.84 157.28) rotate(20.23) scale(1.26 1.41)" gradientUnits="userSpaceOnUse">
      <stop offset="0" stop-color="#c62786"/>
      <stop offset=".47" stop-color="#4dc2f0"/>
      <stop offset=".9" stop-color="#4e8dcb" stop-opacity=".8"/>
    </linearGradient>
    <linearGradient id="Adsız_degrade_9" data-name="Adsız degrade 9" x1="-21.25" y1="253.31" x2="-21.25" y2="-141.34" gradientTransform="translate(229.84 157.28) rotate(20.23) scale(1.26 1.41)" gradientUnits="userSpaceOnUse">
      <stop offset="0" stop-color="#c62786"/>
      <stop offset=".47" stop-color="#3c85c6"/>
      <stop offset=".64" stop-color="#3d85c6" stop-opacity=".98"/>
      <stop offset=".77" stop-color="#4287c7" stop-opacity=".93"/>
      <stop offset=".88" stop-color="#4b8bca" stop-opacity=".84"/>
      <stop offset=".91" stop-color="#4e8dcb" stop-opacity=".81"/>
    </linearGradient>
  </defs>
  <g id="katman_2-2" data-name="katman 2">
    <g>
      <path class="cls-2" d="m346.62,190.89h29.47c3.56,0,6.22,3.93,5.49,8.1l-13.58,76.76c-.55,3.1-2.84,5.32-5.49,5.32h-29.47c-3.56,0-6.22-3.93-5.49-8.1l13.58-76.76c.55-3.1,2.84-5.32,5.49-5.32Zm5.79-33.27h29.61c3.56,0,6.22,3.92,5.49,8.09l-2.3,13.1c-.55,3.11-2.83,5.33-5.49,5.33h-29.61c-3.56,0-6.22-3.92-5.49-8.09l2.3-13.1c.55-3.11,2.83-5.33,5.49-5.33Z"/>
      <path class="cls-2" d="m106.15,38.32C110.67,16.54,129.85.93,152.09.93h86.74c19.2,0,34.41,2.57,45.63,7.71,11.22,5.14,19.73,11.22,25.55,18.25,5.81,7.03,9.53,14.47,11.15,22.31,1.62,7.84,2.43,14.33,2.43,19.47,0,8.65-1.29,16.83-3.85,24.53-2.57,7.71-6.29,14.67-11.15,20.89-4.87,6.23-10.75,11.36-17.64,15.41-6.89,4.06-14.54,6.76-22.92,8.11v.81c28.93,9.19,43.4,29.47,43.4,60.84,0,7.57-1.49,16.56-4.46,26.97-2.98,10.41-8.45,20.42-16.43,30.01-7.98,9.6-19.06,17.71-33.26,24.33-14.19,6.63-32.38,9.94-54.55,9.94H53.88S106.15,38.32,106.15,38.32Z"/>
      <g class="cls-3">
        <path class="cls-1" d="m52.28,99.14c4.51-21.77,23.69-37.39,45.93-37.39h86.74c19.2,0,34.41,2.57,45.63,7.71,11.22,5.14,19.73,11.22,25.55,18.25,5.81,7.03,9.53,14.47,11.15,22.31,1.62,7.84,2.43,14.33,2.43,19.47,0,8.65-1.29,16.83-3.85,24.53-2.57,7.71-6.29,14.67-11.15,20.89-4.87,6.23-10.75,11.36-17.64,15.41-6.89,4.06-14.54,6.76-22.92,8.11v.81c28.93,9.19,43.4,29.47,43.4,60.84,0,7.57-1.49,16.56-4.46,26.97-2.98,10.41-8.45,20.42-16.43,30.01-7.98,9.6-19.06,17.71-33.26,24.33-14.19,6.63-32.38,9.94-54.55,9.94H0L52.28,99.14Z"/>
      </g>
      <path class="cls-5" d="m323.13,75.5c-12.23-109.27-172.59-67.24-213.56,82.75l42.27-4.52s-33.18,82.36-37.47,175.08c-23.12-53.12-10.21-136.26-10.21-136.26l-52.56,10.59C122.37-5.82,224.74-8.52,271.82,4.34c36.89,10.07,52.41,33.43,51.3,71.17Z"/>
      <path class="cls-4" d="m323.13,77.51c-12.51-66.57-78.56-54.91-128.02-2.3-13.04,13.82-24.61,31.06-33.31,51.49l77.81-6.66c-1.14,1.11-21.68,20.22-48.72,59.58-5.77,8.38-11.83,17.69-18.04,27.92-19.09,31.41-39.81,71.64-58.49,121.27-.39-87.7,37.47-175.08,37.47-175.08l-42.27,4.52C150.39,4.5,316.01-31.34,323.13,77.51Z"/>
      <path class="cls-1" d="m294.7,254.97h29.47c3.56,0,6.22,3.93,5.49,8.1l-13.58,76.76c-.55,3.1-2.84,5.32-5.49,5.32h-29.47c-3.56,0-6.22-3.93-5.49-8.1l13.58-76.76c.55-3.1,2.84-5.32,5.49-5.32Zm5.79-33.27h29.61c3.56,0,6.22,3.92,5.49,8.09l-2.3,13.1c-.55,3.11-2.83,5.33-5.49,5.33h-29.61c-3.56,0-6.22-3.92-5.49-8.09l2.3-13.1c.55-3.11,2.83-5.33,5.49-5.33Z"/>
      <path class="cls-1" d="m383.45,355.24l-3.16,18.15c-.78,4.47-4.12,7.68-8,7.68h-24.68c-5.2,0-9.07-5.65-7.98-11.63l15.66-85.98c.58-3.29,1.11-6.38,1.59-9.23,1.63-9.76,8.89-16.78,17.33-16.78h23.51c1.22,0,2.18,1.21,2.1,2.65,0,.03,0,.06,0,.08-.11,2.12,1.91,3.45,3.35,2.17,4.06-3.62,8.85-6.76,18.69-4.04,11.3,3.12,24.24,13.53,24.24,38.19,0,32.43-12.79,53.33-41.18,53.33-4.33,0-7.95-.66-10.97-1.8-4.63-1.75-9.51,1.61-10.48,7.21Zm24.61-64.86c0-6.42-1.58-8.44-4.73-8.44-5.31,0-9.18,8.95-11.76,25.33-1.43,9.12-1.72,15.87,3.73,15.87,9.32,0,12.76-25.5,12.76-32.76Z"/>
    </g>
  </g>
</svg>