<?xml version="1.0" encoding="UTF-8"?>
<svg id="katman_2" data-name="katman 2" xmlns="http://www.w3.org/2000/svg" xmlns:xlink="http://www.w3.org/1999/xlink" viewBox="0 0 132.17 147.12">
  <defs>
    <style>
      .cls-1, .cls-2, .cls-3, .cls-4 {
        fill: #fff;
      }

      .cls-5 {
        fill: #4592e4;
      }

      .cls-6, .cls-7 {
        fill: #4592e5;
      }

      .cls-2 {
        stroke-width: .5px;
      }

      .cls-2, .cls-8, .cls-3, .cls-7, .cls-9, .cls-4 {
        stroke-miterlimit: 10;
      }

      .cls-2, .cls-7, .cls-9 {
        stroke: #fff;
      }

      .cls-8, .cls-3, .cls-4 {
        stroke: #4592e5;
      }

      .cls-8, .cls-9 {
        fill: none;
      }

      .cls-8, .cls-4 {
        stroke-width: .75px;
      }

      .cls-10 {
        opacity: .8;
      }

      .cls-10, .cls-11 {
        isolation: isolate;
      }
    </style>
  </defs>
  <g id="katman_2-2" data-name="katman 2">
    <g>
      <image class="cls-11" width="117" height="117" transform="scale(1.13)" xlink:href="../../Documents/SVG/SVG/F8B9860940292870.png"/>
      <circle class="cls-6" cx="66.25" cy="66.09" r="41.23"/>
      <circle class="cls-9" cx="66.09" cy="66.09" r="38.6"/>
      <path class="cls-9" d="m89.84,43.74c1.07,2.11,2.16,4.55,2.94,6.21"/>
      <path class="cls-1" d="m97.86,67.78c-.11-1.13-.34-2.15-.68-3.39-.11-.34-.23-.9-.45-1.24-.34-.56-.79-1.13-1.36-1.58-.68-.45-1.36-.9-1.81-1.47-.56-.45-.9-.9-1.02-1.47-.11-.45-.23-.9-.11-1.24.23-.34.56-.56.79-.68.34-.34.56-.68.68-1.13,0-.56,0-1.13-.11-1.81-.11-.79-.34-1.47-.68-2.03-.23-.45-.56-.68-1.02-.9-.45-.23-.9-.56-1.58-.68l-.32-1.14-.47-1.23-2.03-3.39c-.9-1.24-1.81-2.15-2.71-2.71-.45-.34-1.36-.56-2.71-.68l-7.91-.34h-5.76,0c-8.22.04-17.41,4.64-20.68,6.89l-5.76,4.29-3.95,3.73c-.45.68-.79,1.02-.79,1.47-.34.68-.11,1.81.11,2.49.23.34.45.56.68.68.9.34.68,1.24,0,1.36l-1.02.34c-1.24.79-2.15,1.58-2.71,2.71-.34,1.24-1.02,3.05-1.13,4.97-.11.9-.23,2.82,0,3.39.23,1.13,1.02,1.92,1.69,2.37v-3.05c0-1.81.56-3.39,1.69-4.63.79-1.24,1.92-2.15,3.39-2.71,1.58-.79,3.39-1.02,5.54-.68,1.47.23,2.94.79,4.18,1.92.9.79,1.69,1.81,2.26,2.82.79,2.03,1.24,3.95.68,6.1l25.64.23c-.56-1.47-.34-3.73.34-5.65.56-1.81,1.92-3.16,3.61-4.41,1.69-1.02,2.37-1.24,4.18-1.36.29,0,.62,0,.97,0,4.66.11,8.96,2.85,8.89,9.51.07-.07-.11.96-.05.88l.05.06c.02-.06.02-.12.04-.17.6-.81,1.21-2.29,1.4-3.94.11-.9.11-1.92,0-2.49Z"/>
      <path class="cls-5" d="m40.02,58.86c.11-1.02.23-1.69.56-2.49.9-.68,1.81-1.24,3.05-1.81l1.02-1.47c-1.69.9-3.61,1.81-4.18,2.26s-1.02,1.02-1.13,1.92c-.11.56-.23,1.02-.23,1.47-.11.79.11,1.24.56,1.47.34.23.68.34,1.02.45h1.69c.23,0,.34-.23.45-.56,0-.23,0-.45-.68-.45h-1.36c-.34-.11-.56-.34-.79-.79Z"/>
      <path class="cls-6" d="m84.53,51.18c-.56-1.58-1.58-3.05-2.82-4.29-1.36-1.24-3.05-2.26-4.97-3.28-1.36-.56-2.82-.79-4.41-.9-2.6-.11-5.65.11-8.81.56-3.16.79-6.1,2.26-9.04,4.07-2.26,1.13-3.95,2.82-5.54,4.74-.56,2.26-.56,4.07-.23,5.76,1.69,3.39,4.41,6.33,8.02,8.81,1.36.79,3.05,1.13,4.86,1.13,3.39.23,6.89.11,10.51-.34,1.69-.34,3.39-1.24,4.97-2.71,2.6-2.26,5.08-4.63,7.23-7.12.56-.45.9-1.13.79-1.92-.34,0-1.02-.11-1.36-.34-.11-.11-.23-.34-.23-.68s0-.68-.11-1.02c0-.34,0-.56.34-.68s.79-.23,1.24-.45c0-.23,0-.45-.11-.56"/>
      <path class="cls-3" d="m53.01,55.82c-.11.79,0,1.36.34,1.92.68.79,1.69,1.24,3.05,1.36,4.03.28,8.21.28,12.54.23,2.82,0,5.57-.22,8.85-.33l6.86-.46c2.15-.34,4.18-.79,6.1-1.36.79-.45.9-.79,1.02-1.58,0-.56.11-.79-.23-1.47-.23-.34-.68-.9-2.15-1.13l-5.99-.68c-3.73,0-7.23,0-9.83.23-6.29.29-14.32,1.06-19.09,2.03-.96.2-1.31.63-1.47,1.24h0Z"/>
      <path class="cls-2" d="m92.56,49.36c.79.45,1.69.79,2.03,1.02s.68.68.79,1.02c.34.79.45,1.58.68,2.49.11.45.23,1.24.23,1.92,0,.56-.11.9-.34,1.36-.23.34-.56.56-.9.9l-.45.34c-.11,0-.23,0-.45-.23-.11-.23,0-.45.34-.68.34-.23.68-.56.9-.9.11-.11.23-.34.23-.79,0-.79-.11-1.58-.23-2.26-.23-.79-.34-1.81-.56-2.03-.11-.23-.34-.45-.68-.68-.23-.11-.68-.34-1.24-.45-.23-.11-.34-.23-.45-.45-.23-.45-.23-.68.11-.56h0Z"/>
      <path class="cls-9" d="m86.68,40.9c1.81,0,4.07.34,6.55,1.02.45.11.56.34.45.56-1.92.45-3.16,1.02-3.61,1.69-.68-1.36-1.81-2.37-3.39-3.28Z"/>
      <path class="cls-4" d="m83.56,53.88c.37,0,1.48.43,1.61.64.12.32,0,1.39,0,1.82,0,.54-1.86.43-2.1.75"/>
      <circle class="cls-3" cx="44.09" cy="73.55" r="7.34"/>
      <circle class="cls-3" cx="87.47" cy="73.77" r="7.34"/>
      <polygon class="cls-8" points="43.98 71.74 42.39 72.53 40.81 71.51 40.93 69.71 42.51 68.91 44.09 69.93 43.98 71.74"/>
      <polygon class="cls-8" points="48.83 74.9 47.25 75.69 45.67 74.68 45.78 72.87 47.48 72.08 48.95 73.09 48.83 74.9"/>
      <polygon class="cls-8" points="43.64 77.5 42.06 78.29 40.47 77.27 40.59 75.47 42.17 74.68 43.75 75.69 43.64 77.5"/>
      <polygon class="cls-8" points="45.56 74.79 43.86 75.58 42.28 74.56 42.39 72.64 44.09 71.85 45.67 72.87 45.56 74.79"/>
      <g>
        <image class="cls-10" width="56" height="53" transform="translate(34.46 87.25) scale(1.13)" xlink:href="../../Documents/SVG/SVG/F8B9860940292873.png"/>
        <path class="cls-6" d="m52.08,104.9c5.76,1.13,10.39,8.7,14.01,24.51,1.92-11.97,5.54-21.8,14.23-24.51-10.28,1.69-19.77,1.81-28.24,0Z"/>
      </g>
      <polygon class="cls-8" points="87.32 71.85 85.74 72.64 84.27 71.62 84.27 69.81 85.97 69.02 87.44 70.04 87.32 71.85"/>
      <polygon class="cls-8" points="92.29 75.01 90.6 75.8 89.13 74.9 89.24 73.09 90.83 72.19 92.29 73.2 92.29 75.01"/>
      <polygon class="cls-8" points="86.98 77.61 85.4 78.4 83.93 77.38 84.05 75.58 85.63 74.78 87.1 75.8 86.98 77.61"/>
      <polygon class="cls-8" points="89.02 74.9 87.32 75.69 85.63 74.67 85.74 72.75 87.44 71.96 89.02 72.98 89.02 74.9"/>
      <path class="cls-3" d="m82.83,52.32s1.15,4.66-.77,6.34"/>
      <path class="cls-7" d="m52.42,52.91l29.65-2.68c-1.32-3.79-8.02-5.25-14.83-4.82-7.77.69-13.53,3.09-14.83,7.5Z"/>
      <path class="cls-7" d="m58.47,47.45c-.7,1.84-.62,3.45,0,4.91"/>
      <path class="cls-7" d="m75.89,46.23c.81,1.36.97,2.86.25,4.54"/>
    </g>
  </g>
</svg>