<?xml version="1.0" encoding="utf-8"?>
<!-- Generator: Adobe Illustrator 27.5.0, SVG Export Plug-In . SVG Version: 6.00 Build 0)  -->
<svg version="1.1" id="katman_2_00000090255877421767315750000012066173238328294532_"
	 xmlns="http://www.w3.org/2000/svg" xmlns:xlink="http://www.w3.org/1999/xlink" x="0px" y="0px" viewBox="0 0 88.8 106.6"
	 style="enable-background:new 0 0 88.8 106.6;" xml:space="preserve">
<style type="text/css">
	.st0{fill:#FFFFFF;}
	.st1{fill:none;stroke:#4592E5;stroke-miterlimit:10;}
	.st2{fill:#4592E5;}
	.st3{fill:#FFFFFF;stroke:#4592E5;stroke-miterlimit:10;}
	.st4{fill:#FFFFFF;stroke:#4592E5;stroke-width:0.5;stroke-miterlimit:10;}
	.st5{fill:#FFFFFF;stroke:#4592E5;stroke-width:0.25;stroke-miterlimit:10;}
	.st6{fill:none;stroke:#4592E5;stroke-width:0.75;stroke-miterlimit:10;}
	.st7{fill:#FFFFFF;stroke:#4592E5;stroke-width:1.5;stroke-miterlimit:10;}
</style>
<g id="katman_2-2">
	<g>
		
			<image style="overflow:visible;" width="117" height="117" xlink:href="F8B9860940292870.png"  transform="matrix(1 0 0 1 -11 -8.42)">
		</image>
		<g>
			<circle class="st0" cx="47.6" cy="49.6" r="36.5"/>
			<circle class="st1" cx="47.6" cy="49.6" r="36.5"/>
		</g>
	</g>
	<g>
		<path class="st2" d="M63.4,38.9c-0.5-1.4-1.4-2.7-2.5-3.8c-1.2-1.1-2.7-2-4.4-2.9c-1.2-0.5-2.5-0.7-3.9-0.8
			c-2.3-0.1-5,0.1-7.8,0.5c-2.8,0.7-5.4,2-8,3.6c-2,1-3.5,2.5-4.9,4.2c-0.5,2-0.5,3.6-0.2,5.1c1.5,3,3.9,5.6,7.1,7.8
			c1.2,0.7,2.7,1,4.3,1c3,0.2,6.1,0.1,9.3-0.3c1.5-0.3,3-1.1,4.4-2.4c2.3-2,4.5-4.1,6.4-6.3c0.5-0.4,0.8-1,0.7-1.7
			c-0.3,0-0.9-0.1-1.2-0.3c-0.1-0.1-0.2-0.3-0.2-0.6c0-0.3,0-0.6-0.1-0.9c0-0.3,0-0.5,0.3-0.6c0.3-0.1,0.7-0.2,1.1-0.4
			c0-0.2,0-0.4-0.1-0.5c-0.2-0.3-0.4-0.5-0.7-0.7"/>
		<path class="st1" d="M68.1,32.4c1.2,1.7,2.1,3.9,2.6,5.5"/>
		<path class="st1" d="M73.7,59.6c0.6-0.6,1.3-2.1,1.5-3.8c0.1-0.8,0.1-1.7,0-2.2c-0.1-1-0.3-1.9-0.6-3c-0.1-0.3-0.2-0.8-0.4-1.1
			c-0.3-0.5-0.7-1-1.2-1.4c-0.6-0.4-1.2-0.8-1.6-1.3c-0.5-0.4-0.8-0.8-0.9-1.3c-0.1-0.4-0.2-0.8-0.1-1.1c0.2-0.3,0.5-0.5,0.7-0.6
			c0.3-0.3,0.5-0.6,0.6-1c0-0.5,0-1-0.1-1.6c-0.1-0.7-0.3-1.3-0.6-1.8c-0.2-0.4-0.5-0.6-0.9-0.8c-0.4-0.2-0.8-0.5-1.4-0.6l-0.4-1
			L68,35.9l-1.8-3c-0.8-1.1-1.6-1.9-2.4-2.4c-0.4-0.3-1.2-0.5-2.4-0.6l-7-0.3h-5.1"/>
		<path class="st1" d="M49.4,29.6c-7.3,0-15.5,4.1-18.4,6.1l-5.1,3.8l-3.5,3.3c-0.4,0.6-0.7,0.9-0.7,1.3c-0.3,0.6-0.1,1.6,0.1,2.2
			c0.2,0.3,0.4,0.5,0.6,0.6c0.8,0.3,0.6,1.1,0,1.2l-0.9,0.3c-1.1,0.7-1.9,1.4-2.4,2.4c-0.3,1.1-0.9,2.7-1,4.4c-0.1,0.8-0.2,2.5,0,3
			c0.2,1,0.9,1.7,1.5,2.1l0-2.7c0-1.6,0.5-3,1.5-4.1c0.7-1.1,1.7-1.9,3-2.4c1.4-0.7,3-0.9,4.9-0.6c1.3,0.2,2.6,0.7,3.7,1.7
			c0.8,0.7,1.5,1.6,2,2.5c0.7,1.8,1.1,3.5,0.6,5.4L58,60.3c-0.5-1.3-0.3-3.3,0.3-5c0.5-1.6,1.7-2.8,3.2-3.9c1.5-0.9,2.1-1.1,3.7-1.2
			c1.2,0,2.9-0.1,4.8,1c1.3,0.9,2.5,1.9,3.2,3.4c0.6,1.3,1,3.1,0.5,4.9"/>
		<path class="st2" d="M24,45.7c0.1-0.9,0.2-1.5,0.5-2.2c0.8-0.6,1.6-1.1,2.7-1.6l0.9-1.3c-1.5,0.8-3.2,1.6-3.7,2
			c-0.5,0.4-0.9,0.9-1,1.7c-0.1,0.5-0.2,0.9-0.2,1.3c-0.1,0.7,0.1,1.1,0.5,1.3c0.3,0.2,0.6,0.3,0.9,0.4l1.5,0c0.2,0,0.3-0.2,0.4-0.5
			c0-0.2,0-0.4-0.6-0.4h-1.2C24.4,46.3,24.2,46.1,24,45.7z"/>
		<path class="st3" d="M35.5,42.1c-0.1,0.7,0,1.2,0.3,1.7c0.6,0.7,1.5,1.1,2.7,1.2l11.1,0.2c2.5,0,5.3-0.1,8.2-0.2l5.7-0.5
			c1.9-0.3,3.7-0.7,5.4-1.2c0.7-0.4,0.8-0.7,0.9-1.4c0-0.5,0.1-0.7-0.2-1.3c-0.2-0.3-0.6-0.8-1.9-1l-5.3-0.6c-3.3,0-6.4,0-8.7,0.2
			c-3.9,0.3-9.9,1-16.9,1.8C35.9,41,35.6,41.4,35.5,42.1L35.5,42.1z"/>
		<path class="st2" d="M69.5,37.1c0.7,0.4,1.5,0.7,1.8,0.9c0.3,0.2,0.6,0.6,0.7,0.9c0.3,0.7,0.4,1.4,0.6,2.2
			c0.1,0.4,0.2,1.1,0.2,1.7c0,0.5-0.1,0.8-0.3,1.2c-0.2,0.3-0.5,0.5-0.8,0.8l-0.4,0.3c-0.1,0-0.2,0-0.4-0.2c-0.1-0.2,0-0.4,0.3-0.6
			c0.3-0.2,0.6-0.5,0.8-0.8c0.1-0.1,0.2-0.3,0.2-0.7c0-0.7-0.1-1.4-0.2-2c-0.2-0.7-0.3-1.6-0.5-1.8c-0.1-0.2-0.3-0.4-0.6-0.6
			c-0.2-0.1-0.6-0.3-1.1-0.4c-0.2-0.1-0.3-0.2-0.4-0.4C69.2,37.2,69.2,37,69.5,37.1L69.5,37.1z"/>
		<path class="st1" d="M65.3,29.8c1.6,0,3.6,0.3,5.8,0.9c0.4,0.1,0.5,0.3,0.4,0.5c-1.7,0.4-2.8,0.9-3.2,1.5
			C67.7,31.5,66.7,30.6,65.3,29.8z"/>
		<path class="st1" d="M63,39.9c0.3,0,1.2,0.4,1.3,0.6c0.1,0.3,0,1.3,0,1.7c0,0.5-1.5,0.4-1.7,0.7"/>
		<path class="st3" d="M32.8,41.1l4.8-0.5c-0.1-1.7,0-3.2,0.3-4.5c-1.3,0.7-2.4,1.4-3.4,2.3C33.6,39.3,33.1,40.2,32.8,41.1z"/>
		<path class="st4" d="M39.7,35.3c2-1.3,3.8-1.9,6-2.4c2.4-0.3,4.9-0.3,7.5-0.2c2.2,0.3,3.6,1,4.7,2c0.1,1.7,0,3.4-0.2,3.8
			c-6.4,0-12.4,0.7-18.7,2c-0.2-1.7-0.1-3.3,0.3-5L39.7,35.3z"/>
		<path class="st5" d="M58.9,35.1c0.2,0.7,0.2,1.8,0,3.2h2.7C60.9,37,60.1,36.2,58.9,35.1z"/>
		<circle class="st3" cx="27.6" cy="58.7" r="6.5"/>
		<circle class="st3" cx="66" cy="58.9" r="6.5"/>
		<polygon class="st6" points="27.5,57.1 26.1,57.8 24.7,56.9 24.8,55.3 26.2,54.6 27.6,55.5 		"/>
		<polygon class="st6" points="31.8,59.9 30.4,60.6 29,59.7 29.1,58.1 30.6,57.4 31.9,58.3 		"/>
		<polygon class="st6" points="27.2,62.2 25.8,62.9 24.4,62 24.5,60.4 25.9,59.7 27.3,60.6 		"/>
		<polygon class="st6" points="28.9,59.8 27.4,60.5 26,59.6 26.1,57.9 27.6,57.2 29,58.1 		"/>
	</g>
</g>
<g>
	
		<image style="overflow:visible;opacity:0.8;" width="56" height="53" xlink:href="F8B9860940292873.png"  transform="matrix(1 0 0 1 20 68.58)">
	</image>
	<g>
		<path class="st2" d="M35.6,84.2c5.1,1,9.2,7.7,12.4,21.7c1.7-10.6,4.9-19.3,12.6-21.7C51.5,85.7,43.1,85.8,35.6,84.2z"/>
	</g>
</g>
<polygon class="st6" points="66,57.3 64.6,58 63.3,57.1 63.3,55.5 64.8,54.8 66.1,55.7 "/>
<polygon class="st6" points="70.4,60.1 68.9,60.8 67.6,60 67.7,58.4 69.1,57.6 70.4,58.5 "/>
<polygon class="st6" points="65.7,62.4 64.3,63.1 63,62.2 63.1,60.6 64.5,59.9 65.8,60.8 "/>
<polygon class="st6" points="67.5,60 66,60.7 64.5,59.8 64.6,58.1 66.1,57.4 67.5,58.3 "/>
<path class="st7" d="M62.3,38.4c1.1,2,0.6,5-0.4,6.8"/>
</svg>
